<svg xmlns="http://www.w3.org/2000/svg" width="32" height="32" viewBox="0 0 32 32" fill="none">
  <rect width="32" height="32" rx="8" fill="#1B1FBF"/>
  <path d="M6 24C3.8 24 2 22.2 2 20C2 18.1 3.3 16.5 5.1 16.1C5 15.6 5 15 5 14.5C5 11.5 7.5 9 10.5 9C12.6 9 14.4 10.2 15.3 12C15.7 11.8 16.1 11.7 16.6 11.7C18.4 11.7 19.9 13 20.1 14.7C20.4 14.6 20.7 14.6 21 14.6C23.2 14.7 25 16.5 25 18.7C25 20.9 23.2 22.7 21 22.7H6.3" stroke="white" stroke-width="1.5" stroke-linecap="round" fill="none"/>
  <circle cx="25" cy="7" r="4" fill="#FF1A6C"/>
</svg>
